<svg width="639" height="300" fill="none" xmlns="http://www.w3.org/2000/svg"><path d="M20.561 88.768c-.897-1.411-.64-2.566.771-3.463 1.411-.897 2.566-.64 3.463.771 3.325 5.325 6.559 8.505 9.701 9.54 3.157.889 6.227.37 9.209-1.557 2.982-1.927 5.901-4.743 8.758-8.45 3.016-3.839 5.768-7.997 8.256-12.475a148.785 148.785 0 0 0 7.067-13.915c2.21-4.652 4.078-8.82 5.607-12.506 1.515-3.54 2.887-6.355 4.117-8.449 1.244-2.239 2.457-3.376 3.639-3.41 1.78-.127 2.704.993 2.775 3.357.522 2.259.081 6.121-1.321 11.587-1.257 5.479-3.122 11.931-5.595 19.357-2.473 7.427-5.38 15.548-8.722 24.365a1106.96 1106.96 0 0 1-10.046 26.67 2620.799 2620.799 0 0 0-15.079 40.114 6631.222 6631.222 0 0 0-5.523 16.271c-1.507 5.013-2.559 9.112-3.156 12.297 1.967-3.644 4.305-8.873 7.014-15.687 2.696-6.669 5.62-14.199 8.775-22.592a6997.42 6997.42 0 0 1 7.93-20.683 1353.022 1353.022 0 0 1 8.63-21.059c3.015-6.933 6.062-13.42 9.14-19.463 3.092-6.189 6.18-11.568 9.266-16.136 3.246-4.701 6.395-8.38 9.446-11.037 3.197-2.643 6.336-3.892 9.416-3.747l.219.021c5.417.367 10.089 2.357 14.019 5.972 3.227 3.253 5.627 7.458 7.199 12.617 1.573 5.158 2.413 11.057 2.519 17.697.12 6.494-.539 13.429-1.976 20.806-1.277 7.245-3.173 14.8-5.687 22.664a214.975 214.975 0 0 1-5.253 13.424c7.411-3.569 13.814-5.834 19.209-6.795 5.541-.947 9.069-1.643 10.585-2.089 1.661-.431 2.822-.247 3.483.552.383.626.386 1.362.011 2.211-.229.862-.723 1.404-1.48 1.627-1.676.578-5.444 1.472-11.305 2.684-5.714 1.225-13.66 4.227-23.838 9.007-5.92 12.697-13.463 24.651-22.63 35.861-9.036 11.371-19.424 20.697-31.165 27.98-5.95 3.708-10.98 6.25-15.088 7.628-3.963 1.392-7.178 1.897-9.647 1.515-3.358-.319-5.642-1.862-6.853-4.628-.828-2.142-.857-4.943-.086-8.406 1.132-4.165 3.582-9.015 7.349-14.551 3.766-5.535 8.454-10.688 14.064-15.46l.219.021c3.809-2.879 8.136-5.783 12.981-8.712a403.192 403.192 0 0 1 15.193-8.723 539.191 539.191 0 0 1 16.047-8.421c5.416-2.727 10.671-5.322 15.767-7.784a123.24 123.24 0 0 0 3.981-9.346 132.142 132.142 0 0 0 3.522-9.168c2.487-7.572 4.355-14.835 5.605-21.788 1.409-7.085 2.04-13.729 1.892-19.93-.162-6.056-.91-11.357-2.247-15.904-1.336-4.546-3.346-8.2-6.031-10.959-2.976-2.787-6.516-4.302-10.618-4.544l-.219-.02c-3.678-.055-7.626 2.737-11.845 8.377-4.059 5.508-8.27 12.622-12.634 21.342-4.217 8.733-8.372 18.357-12.464 28.871a8000.743 8000.743 0 0 0-11.714 30.268c-3.918 10.236-7.5 19.251-10.744 27.046-3.099 7.808-5.809 13.076-8.13 15.802-2.322 2.726-4.428 3.189-6.32 1.389-.424-.188-.747-.66-.97-1.418-.376-2.246.044-5.889 1.259-10.93 1.361-5.027 3.177-10.969 5.449-17.825a1894.785 1894.785 0 0 1 8.138-22.873c3.14-8.247 6.368-16.633 9.681-25.158 2.55-6.682 5.02-13.298 7.41-19.848a480.971 480.971 0 0 0 6.867-18.795c2.188-5.98 4.11-11.47 5.763-16.47 1.667-5.145 2.972-9.588 3.917-13.329A817.443 817.443 0 0 1 71.635 62.9a201.523 201.523 0 0 1-7.286 13.893c-2.647 4.61-5.486 8.908-8.516 12.893-3.017 3.839-6.169 6.78-9.457 8.825-4.22 2.546-8.565 3.312-13.036 2.299-4.31-1.146-8.57-5.16-12.779-12.042zm34.756 129.706c10.49-6.518 19.811-14.694 27.964-24.527a162.05 162.05 0 0 0 21.099-31.366 1185.314 1185.314 0 0 0-28.582 14.744c-9.635 5.273-17.934 10.452-24.9 15.536-5.29 4.507-9.644 9.25-13.063 14.229-3.42 4.979-5.601 9.339-6.546 13.08-.646 2.149-.659 3.842-.04 5.079.355.918 1.19 1.439 2.504 1.564 2.03.34 4.8-.134 8.311-1.421 3.51-1.287 7.929-3.593 13.253-6.918zm121.721-83.911c1.642 1.334 2.751 2.839 3.329 4.515a147.053 147.053 0 0 0 2.804-3.933c.855-1.245 1.557-2.43 2.105-3.557.869-1.39 2.006-1.725 3.41-1.002 1.523 1.029 1.851 2.238.982 3.629-.014.146-.094.212-.24.198l-.021.219-.062.657-2.929 5.247c-1.925 3.206-4.045 6.909-6.359 11.109a248.445 248.445 0 0 0-6.785 13.278c-2.05 4.52-3.88 9.06-5.492 13.622-1.452 4.429-2.278 8.476-2.479 12.14.126 1.78.94 2.52 2.441 2.221 1.516-.446 3.713-1.858 6.59-4.237 2.398-1.982 4.991-4.461 7.778-7.438a409.684 409.684 0 0 0 9.123-9.962 601.612 601.612 0 0 1 9.664-11.016 189.775 189.775 0 0 1 10.76-10.912c1.146-1.217 2.415-1.391 3.806-.522.556.347.873.893.95 1.637.076.744-.125 1.314-.605 1.71-3.545 3.2-7.051 6.771-10.52 10.714a660.399 660.399 0 0 0-10.144 11.412 457.324 457.324 0 0 1-9.164 10.401c-2.961 3.254-5.72 5.939-8.278 8.053a76.198 76.198 0 0 1-4.494 3.109c-1.265.911-2.503 1.531-3.712 1.858l-.24.198c-3.337 1.009-5.858.401-7.562-1.823-1.043-1.425-1.541-3.166-1.492-5.224l.02-.219c.104-2.642.513-5.403 1.229-8.281a116.437 116.437 0 0 1 2.583-8.595 224.01 224.01 0 0 1 3.721-8.928 135.379 135.379 0 0 1 4.159-8.887l-1.46 1.409a143.789 143.789 0 0 1-10.114 8.763c-3.489 2.615-6.798 4.879-9.926 6.792-3.566 1.871-6.858 3.18-9.875 3.924-3.004.599-5.559.357-7.666-.727l-1.846-1.502c-1.189-1.439-1.927-2.982-2.212-4.63-.704-3.455.428-7.62 3.396-12.494 2.488-4.479 5.977-8.641 10.467-12.487 3.573-3.491 7.389-6.444 11.448-8.858 4.074-2.559 7.911-4.184 11.513-4.873l.219.021 3.107-.147c1.606.152 3.039.583 4.298 1.292 1.418.576 2.677 1.285 3.775 2.126zm-.894 9.418l.125-1.314c-.313-1.356-1.138-2.76-2.473-4.213-1.641-1.334-3.418-2.019-5.33-2.053-.876-.083-1.467-.066-1.773.053-3.149.585-6.601 2.025-10.354 4.32-3.594 2.164-7.011 4.786-10.25 7.867a88.63 88.63 0 0 0-5.4 5.675c-1.654 1.905-3.017 3.838-4.087 5.799-2.286 3.908-3.234 6.912-2.844 9.012l.532 1.376c.25.466.581.866.991 1.199 1.259.709 3.025.73 5.298.061 2.127-.682 4.588-1.774 7.383-3.276 3.114-1.767 6.263-3.899 9.447-6.396a269.414 269.414 0 0 0 9.634-8.367 69.83 69.83 0 0 0 4.879-4.841 116.507 116.507 0 0 0 4.222-4.902zm53.276 17.433c-1.279 1.057-2.527 1.013-3.744-.134-.911-1.265-.793-2.506.354-3.723 2.732-2.393 4.56-4.577 5.484-6.551.938-2.121 1.264-4.006.978-5.653-.285-1.648-1.123-2.906-2.514-3.775-1.259-.709-2.858-.934-4.798-.676-1.661.431-3.232 1.461-4.713 3.088-1.48 1.627-2.672 4.092-3.575 7.395s-.703 6.637.598 10.001a177.244 177.244 0 0 0 4.247 8.801c.236.612.48 1.151.73 1.617.397.479.72.952.971 1.418l-.021.219c8.39-6.128 16.596-11.095 24.618-14.9 4.164-1.962 8.075-3.58 11.732-4.853.757-.223 1.414-.16 1.971.187.57.202.966.681 1.189 1.439.118.306.063.89-.166 1.752-.07.73-.483 1.207-1.241 1.429-3.511 1.288-7.268 2.846-11.272 4.676-4.018 1.975-8.137 4.236-12.357 6.782a174.806 174.806 0 0 0-12.262 8.118c2.853 7.195 3.755 13.984 2.707 20.367-1.048 6.382-3.035 11.792-5.96 16.229-2.204 3.032-4.497 5.466-6.881 7.302-2.837 1.941-5.663 2.998-8.478 3.173-2.524.202-4.833-.311-6.926-1.541-2.107-1.084-3.898-3.17-5.372-6.256l-.533-1.377c-1.628-4.574-.858-9.584 2.311-15.029 3.009-5.312 7.346-10.646 13.011-16.002a62.516 62.516 0 0 1 4.598-4.204 141.017 141.017 0 0 1 5.255-4.142l-.574-.938-.751-1.397a14.371 14.371 0 0 1-.731-1.617c-1.635-2.954-3.228-6.346-4.779-10.177-1.392-3.963-1.515-8.099-.369-12.41s2.779-7.545 4.899-9.701c2.134-2.302 4.483-3.773 7.049-4.413 3.163-.731 5.989-.242 8.479 1.468 2.809 1.445 4.499 3.816 5.07 7.111.509 2.405.106 5.093-1.207 8.062-1.153 2.837-3.495 5.782-7.027 8.835zm-11.196 50.428c2.418-3.748 4.103-8.303 5.054-13.664.937-5.214.289-10.801-1.945-16.759l-4.316 3.568a93.344 93.344 0 0 0-4.098 3.589c-5.011 4.681-8.907 9.246-11.687 13.697-2.793 4.596-3.54 8.577-2.238 11.942-.028.292.09.598.354.917 1.726 3.553 4.142 5.255 7.25 5.108 2.086-.243 4.001-1.019 5.746-2.327 2.064-1.572 4.024-3.596 5.88-6.071zm41.509-58.378l2.449-4.85 1.605-2.942a1179.766 1179.766 0 0 1 12.561-22.895c4.398-7.538 8.676-14.572 12.831-21.102 4.17-6.676 8.204-12.701 12.103-18.077 4.045-5.361 7.781-9.795 11.208-13.3l.239-.198c4.414-4.59 7.764-7.292 10.052-8.106 4.574-1.629 6.167.217 4.778 5.536-.688 2.587-2.342 6.039-4.962 10.357-2.46 4.187-5.587 9.193-9.381 15.02-3.781 5.682-8.114 11.753-13 18.214-4.886 6.46-10.237 13.171-16.055 20.132a390.147 390.147 0 0 1-17.608 20.206 533.787 533.787 0 0 0-11.664 22.76 886.115 886.115 0 0 0-10.224 21.57c-3.308 6.905-6.202 13.334-8.682 19.286-2.48 5.952-4.447 11.143-5.898 15.572a483.39 483.39 0 0 0 4.711-7.729 295.466 295.466 0 0 1 5.734-9.179 1015.062 1015.062 0 0 1 10.726-17.545c3.808-5.974 7.502-11.516 11.081-16.627 3.739-5.244 7.169-9.559 10.29-12.946 3.28-3.519 6.116-5.459 8.508-5.821 3.747-.676 5.92.488 6.519 3.491.613 2.858.419 6.449-.581 10.774-.854 4.338-2.086 8.788-3.698 13.35-1.466 4.575-2.542 8.156-3.23 10.743 3.156-2.205 6.075-5.022 8.758-8.45a217.931 217.931 0 0 0 8.309-10.703l8.131-11.161c2.857-3.707 5.963-6.948 9.321-9.723.479-.396 1.091-.633 1.835-.71.904-.208 1.707-.132 2.409.229.703.362 1.019.907.95 1.637-.056.584-.403 1.141-1.043 1.669-2.036 1.28-4.643 3.905-7.819 7.876a547.17 547.17 0 0 0-10.029 12.529 276.458 276.458 0 0 1-10.05 12.747c-3.19 4.117-5.963 6.947-8.32 8.491-1.731 1.162-3.385 1.52-4.964 1.076-1.578-.445-2.378-1.331-2.399-2.659-.237-.612-.105-1.999.395-4.161.5-2.162 1.101-4.61 1.802-7.343.861-2.864 1.73-5.802 2.605-8.813.875-3.011 1.576-5.743 2.104-8.198.688-2.586 1.021-4.544.999-5.871-.007-1.474-.469-2.034-1.387-1.679-1.662.431-3.9 2.281-6.715 5.55-2.815 3.269-5.925 7.319-9.33 12.153-3.406 4.833-6.853 10.104-10.341 15.813a1916.442 1916.442 0 0 0-10.445 16.908 681.519 681.519 0 0 0-6.275 10.233c-1.925 3.206-3.736 5.98-5.431 8.324-1.696 2.344-3.124 4.197-4.285 5.56-1.321 1.495-2.426 2.274-3.316 2.337-1.94.258-3.098-.736-3.474-2.982l.063-.657c.771-3.462 2.33-8.25 4.678-14.362 2.189-5.98 4.971-12.787 8.348-20.422 3.217-7.503 6.934-15.621 11.152-24.355a969.357 969.357 0 0 1 13.352-26.577zm17.556-21.979a863.528 863.528 0 0 0 12.99-15.783c4.19-5.348 7.989-10.438 11.394-15.271 3.565-4.966 6.724-9.528 9.476-13.686 2.766-4.305 5.118-8.133 7.057-11.485.855-1.244 1.557-2.43 2.106-3.556a89.309 89.309 0 0 0 1.386-2.963l-2.638 2.18a170.34 170.34 0 0 1-2.919 2.817c-5.401 5.675-11.534 13.638-18.401 23.888-6.72 10.264-13.537 21.551-20.451 33.859zm69.572 19.202c1.641 1.334 2.75 2.839 3.328 4.514a144.837 144.837 0 0 0 2.804-3.932c.855-1.245 1.557-2.431 2.106-3.557.868-1.391 2.005-1.725 3.41-1.002 1.523 1.028 1.85 2.238.981 3.629-.014.146-.094.212-.24.198l-.021.219-.062.657-2.929 5.247c-1.925 3.205-4.044 6.908-6.358 11.108a248.861 248.861 0 0 0-6.786 13.279c-2.05 4.519-3.88 9.06-5.492 13.621-1.452 4.43-2.278 8.476-2.478 12.14.125 1.78.939 2.521 2.441 2.221 1.515-.445 3.712-1.857 6.589-4.236 2.399-1.982 4.991-4.462 7.778-7.438a413.449 413.449 0 0 0 9.123-9.962 601.612 601.612 0 0 1 9.664-11.016 189.78 189.78 0 0 1 10.76-10.912c1.147-1.217 2.415-1.391 3.806-.523.557.348.873.893.95 1.637.076.744-.125 1.314-.605 1.711-3.545 3.199-7.051 6.77-10.519 10.714a652.115 652.115 0 0 0-10.144 11.412 459.633 459.633 0 0 1-9.165 10.4c-2.96 3.255-5.72 5.939-8.278 8.054a76.682 76.682 0 0 1-4.494 3.109c-1.265.911-2.502 1.53-3.712 1.857l-.24.199c-3.337 1.009-5.857.401-7.561-1.823-1.044-1.425-1.541-3.167-1.493-5.225l.021-.219c.103-2.642.513-5.402 1.228-8.281a116.589 116.589 0 0 1 2.584-8.594 222.512 222.512 0 0 1 3.72-8.928 135.137 135.137 0 0 1 4.159-8.887l-1.46 1.408a144.276 144.276 0 0 1-10.113 8.764c-3.49 2.615-6.799 4.879-9.927 6.792-3.566 1.871-6.858 3.179-9.875 3.924-3.003.599-5.559.356-7.665-.728l-1.847-1.501c-1.189-1.439-1.927-2.982-2.212-4.63-.703-3.455.429-7.62 3.396-12.495 2.488-4.478 5.977-8.64 10.467-12.486 3.573-3.492 7.389-6.444 11.449-8.858 4.073-2.56 7.911-4.184 11.512-4.874l.219.021 3.108-.147c1.606.153 3.038.583 4.297 1.292 1.418.577 2.677 1.286 3.776 2.127zm-.895 9.417l.125-1.314c-.313-1.356-1.137-2.76-2.473-4.212-1.641-1.335-3.417-2.019-5.329-2.053-.877-.084-1.467-.066-1.773.052-3.15.585-6.601 2.025-10.355 4.321-3.594 2.163-7.01 4.785-10.25 7.866a88.894 88.894 0 0 0-5.4 5.675c-1.654 1.906-3.016 3.839-4.087 5.8-2.286 3.908-3.234 6.912-2.844 9.011l.532 1.377c.251.466.581.865.991 1.199 1.259.709 3.025.729 5.298.061 2.128-.682 4.589-1.774 7.383-3.277 3.114-1.767 6.263-3.899 9.447-6.396a267.497 267.497 0 0 0 9.634-8.366 70.05 70.05 0 0 0 4.879-4.841 115.793 115.793 0 0 0 4.222-4.903zm114.247-96.996c.736-1.55 1.88-1.957 3.431-1.22 1.391.868 1.798 2.012 1.221 3.43l-6.765 13.06c8.935.553 17.97.821 27.106.805a316.3 316.3 0 0 0 27.292-1.166c8.913-.774 17.364-2.108 25.352-4.002 8.134-1.88 15.52-4.419 22.159-7.62 1.383-.605 2.524-.201 3.421 1.21.237.611.247 1.275.032 1.992-.215.716-.629 1.192-1.241 1.429-6.958 3.464-14.731 6.188-23.317 8.172-8.426 1.852-17.321 3.218-26.686 4.096-9.205.747-18.668 1.1-28.388 1.062a467.825 467.825 0 0 1-28.2-.91l-67.093 131.749-.24.198c-.014.146-.101.285-.26.417-2.947 3.109-5.102 4.083-6.466 2.922-1.098-.841-1.071-2.68.082-5.517 1.286-2.677 3.165-6.182 5.639-10.514a2549.062 2549.062 0 0 0 11.122-21.706c4.496-8.56 8.661-17.52 12.496-26.879 3.849-9.506 6.947-18.861 9.295-28.067 2.507-9.338 3.29-17.588 2.35-24.749-.927-7.307-4.304-12.858-10.132-16.652-5.667-3.927-14.838-5.092-27.513-3.496-.73-.07-1.307-.198-1.731-.386-4.318-2.62-5.869-4.903-4.653-6.85.882-1.537 4.032-2.122 9.448-1.755 5.43.22 12.518.82 21.265 1.798 6.119.728 12.821 1.512 20.108 2.351 7.3.693 15.053 1.282 23.257 1.766l7.609-14.967zm-37.742 73.984l27.684-54.166a412.057 412.057 0 0 1-18.658-1.329 662.932 662.932 0 0 0-16.405-1.779c3.775 2.127 6.599 4.973 8.47 8.54 2.018 3.58 3.396 7.688 4.134 12.325.683 5.221.507 10.951-.527 17.187-1.02 6.091-2.586 12.499-4.698 19.222zm49.083 25.433c1.641 1.335 2.75 2.84 3.328 4.515a146.42 146.42 0 0 0 2.804-3.932c.855-1.245 1.557-2.431 2.106-3.557.869-1.391 2.005-1.725 3.41-1.002 1.523 1.028 1.85 2.238.981 3.629-.014.146-.094.212-.24.198l-.02.219-.063.657-2.929 5.247c-1.925 3.205-4.044 6.908-6.358 11.108a248.442 248.442 0 0 0-6.786 13.278 171.022 171.022 0 0 0-5.492 13.622c-1.452 4.43-2.278 8.476-2.478 12.14.125 1.78.939 2.52 2.441 2.221 1.515-.445 3.712-1.857 6.59-4.236 2.398-1.982 4.99-4.462 7.777-7.438a411.664 411.664 0 0 0 9.123-9.963c3.148-3.678 6.37-7.35 9.664-11.015a189.457 189.457 0 0 1 10.76-10.912c1.147-1.217 2.416-1.392 3.806-.523.557.348.873.893.95 1.637.077.744-.125 1.314-.604 1.711-3.545 3.199-7.052 6.77-10.52 10.713a655.814 655.814 0 0 0-10.144 11.413 459.668 459.668 0 0 1-9.164 10.4c-2.961 3.255-5.721 5.939-8.279 8.054a76.682 76.682 0 0 1-4.494 3.109c-1.265.911-2.502 1.53-3.712 1.857l-.24.198c-3.337 1.01-5.857.402-7.561-1.822-1.044-1.425-1.541-3.167-1.493-5.225l.021-.219c.103-2.642.513-5.402 1.228-8.281a116.589 116.589 0 0 1 2.584-8.594 222.512 222.512 0 0 1 3.72-8.928 135.411 135.411 0 0 1 4.159-8.887l-1.46 1.408a144 144 0 0 1-10.113 8.763c-3.49 2.616-6.799 4.88-9.927 6.793-3.566 1.871-6.858 3.179-9.875 3.924-3.003.599-5.558.356-7.665-.728l-1.847-1.501c-1.189-1.439-1.926-2.982-2.212-4.63-.703-3.455.429-7.62 3.396-12.495 2.488-4.478 5.977-8.64 10.467-12.487 3.573-3.491 7.389-6.443 11.449-8.857 4.073-2.56 7.911-4.184 11.512-4.874l.219.021 3.108-.147c1.606.153 3.038.583 4.297 1.292 1.418.577 2.677 1.286 3.776 2.126zm-.894 9.418l.124-1.314c-.313-1.356-1.137-2.76-2.472-4.213-1.642-1.334-3.418-2.018-5.33-2.053-.876-.083-1.467-.065-1.773.053-3.15.585-6.601 2.025-10.355 4.321-3.594 2.163-7.01 4.785-10.249 7.866a88.638 88.638 0 0 0-5.401 5.675c-1.654 1.906-3.016 3.839-4.086 5.8-2.287 3.908-3.235 6.912-2.845 9.011l.532 1.377c.251.466.581.865.991 1.199 1.259.709 3.025.729 5.298.061 2.128-.682 4.589-1.774 7.383-3.277 3.114-1.767 6.263-3.899 9.447-6.396a268.54 268.54 0 0 0 9.634-8.367 69.821 69.821 0 0 0 4.879-4.84 116.559 116.559 0 0 0 4.223-4.903zm37.082 9.046l-.438-.042c-.132-.16-.271-.247-.417-.261-1.245-.854-1.506-1.984-.783-3.389-.864-3.323-1.143-6.591-.838-9.803.305-3.212.781-5.892 1.427-8.041 1.236-3.713 2.848-6.728 4.836-9.043 1.988-2.316 3.674-3.777 5.057-4.382 1.689-.724 3.163-.731 4.422-.022 1.405.723 2.469 1.929 3.192 3.618.738 1.543 1.068 3.49.993 5.84-.062 2.204-.649 4.505-1.761 6.904-1.459 2.956-3.363 5.942-5.712 8.96-2.336 2.873-4.31 5.042-5.922 6.51a33.223 33.223 0 0 0 3.683 5.432c1.454 1.759 2.688 3.497 3.704 5.214 1.516 2.648 2.629 4.89 3.339 6.725.724 1.69.915 3.55.575 5.58-.194 2.044-.861 4.412-2 7.103-1.14 2.691-2.727 6.223-4.763 10.597a2981.958 2981.958 0 0 0-7.515 16.302c-2.841 6.655-6.128 14.888-9.858 24.699-1.008 2.851-1.754 5.285-2.24 7.301a250.91 250.91 0 0 0-1.156 5.194c-.125 1.314.216 2.378 1.022 3.191.647.946 1.635 1.408 2.963 1.386 1.328-.021 2.784-.619 4.369-1.795 1.585-1.175 3.1-3.168 4.545-5.977 2.488-4.478 5.719-10.58 9.694-18.306 4.107-7.565 8.62-15.534 13.54-23.907a329.402 329.402 0 0 1 15.793-24.356c5.768-7.997 11.537-14.448 17.307-19.351.639-.529 1.192-.918 1.657-1.168.466-.251 1.05-.195 1.753.166a2.658 2.658 0 0 1 1.387 1.679c.383.625.327 1.209-.166 1.752-5.929 5.035-11.598 11.2-17.005 18.495a264.329 264.329 0 0 0-15.167 22.427c-4.573 7.816-8.76 15.448-12.561 22.895-3.8 7.448-7.059 13.842-9.776 19.182-2.036 4.374-4.406 7.611-7.11 9.712-2.572 2.26-5.127 3.564-7.664 3.913-2.392.362-4.481-.131-6.269-1.479-1.933-1.363-3.067-3.385-3.401-6.069-.286-1.648-.085-3.765.603-6.352.528-2.454 1.51-5.823 2.948-10.106 3.543-9.387 6.722-17.262 9.536-23.625 2.814-6.362 5.232-11.657 7.254-15.885a971.528 971.528 0 0 0 4.701-9.94c1.271-2.531 2.063-4.666 2.375-6.404.327-1.885.194-3.591-.397-5.121-.432-1.661-1.354-3.591-2.766-5.787a96.45 96.45 0 0 0-3.703-5.214 177.709 177.709 0 0 1-3.287-4.952zm2.75-10.347c1.439-1.189 2.933-2.962 4.483-5.32 1.696-2.343 3.006-4.503 3.93-6.477.91-1.829 1.303-3.634 1.177-5.413.034-1.912-.481-2.698-1.544-2.357-1.064.341-2.183 1.266-3.358 2.775-1.028 1.523-2.005 3.272-2.929 5.247-.764 1.842-1.323 3.852-1.677 6.028-.354 2.177-.381 4.016-.082 5.517zm58.742 13.533a519.837 519.837 0 0 0-10.944 22.165c-3.468 7.037-6.449 13.605-8.943 19.703-2.64 6.084-4.7 11.487-6.179 16.208-1.64 4.854-2.511 8.601-2.615 11.243-.02 1.766.328 2.757 1.044 2.972.57.202 1.335-.094 2.294-.887.799-.66 1.779-1.672 2.94-3.035a151.4 151.4 0 0 0 2.763-3.495c2.244-3.47 5.024-7.92 8.339-13.351a731.994 731.994 0 0 1 10.883-16.867 414.066 414.066 0 0 1 12.917-17.337c4.684-5.89 9.525-11.103 14.523-15.637a5.858 5.858 0 0 1 1.637-.95c.611-.236 1.268-.174 1.971.187.556.348.873.893.949 1.637.223.758.088 1.408-.406 1.951a122.82 122.82 0 0 0-19.225 20.936c-5.448 7.733-10.344 15.077-14.688 22.031-4.357 7.1-8.186 13.292-11.487 18.577-3.461 5.417-6.589 8.877-9.383 10.38-3.261 1.753-5.77 1.809-7.53.169-1.906-1.655-2.845-4.175-2.818-7.561.145-3.08 1.138-7.331 2.979-12.755 1.681-5.292 4.029-11.404 7.045-18.336 2.855-6.801 6.277-14.137 10.266-22.009a573.397 573.397 0 0 1 12.487-24.449l6.462-12.204a496.37 496.37 0 0 1 7.119-12.141 38.152 38.152 0 0 0-9.166 1.119c-2.858.612-5.485 1.91-7.883 3.892-.202.57-.323 1.074-.365 1.512-.028.292-.202.57-.521.835-.855 1.244-1.86 1.738-3.014 1.481-1.286-.416-1.707-1.414-1.263-2.992 2.94-4.583 6.53-7.483 10.771-8.701 4.401-1.35 9.09-1.863 14.068-1.537 5.935-9.75 11.794-18.696 17.576-26.839 5.796-8.29 11.147-15 16.055-20.133l.239-.198c4.72-4.709 8.143-7.404 10.271-8.086 4.574-1.628 6.167.218 4.778 5.537-.688 2.586-2.342 6.039-4.961 10.357-2.982 5.021-7.03 11.193-12.145 18.515-4.969 7.337-10.643 15.122-17.024 23.356 2.163.5 4.252.993 6.269 1.479 2.03.34 3.987.673 5.871.999 1.447.285 3.251.677 5.413 1.177 2.323.368 4.652.663 6.988.885 2.336.221 4.474.203 6.414-.054 2.086-.244 3.702-.975 4.849-2.192 1.105-.779 2.134-.755 3.087.072.966.681 1.029 1.571.188 2.67-1.626 1.613-3.576 2.754-5.849 3.422-2.26.523-4.711.732-7.353.628a126.467 126.467 0 0 1-7.425-.926 151.722 151.722 0 0 0-6.727-1.301 133.292 133.292 0 0 1-7.166-1.344 122.328 122.328 0 0 0-7.561-1.823 863.528 863.528 0 0 1-12.99 15.783 259.755 259.755 0 0 1-13.585 15.064l-.239.198zm52.528-80.757c-4.734 4.855-9.898 11.141-15.492 18.861-5.449 7.732-10.967 16.195-16.554 25.389.73.069 1.38.204 1.95.406l1.752.166c6.846-8.484 12.834-16.461 17.963-23.929 5.288-7.601 9.437-14.058 12.446-19.371.855-1.244 1.557-2.43 2.106-3.557a88.858 88.858 0 0 0 1.386-2.962l-2.638 2.181c-.813.806-1.786 1.745-2.919 2.816zm-35.069 48.161c-.202.57-.831 1.763-1.887 3.578a153.343 153.343 0 0 1-3.231 6.102 279.964 279.964 0 0 1-3.93 6.477 335.76 335.76 0 0 0-2.908 5.028c.639-.529 1.786-1.746 3.44-3.651a129.056 129.056 0 0 0 5.004-6.155c1.842-2.329 3.451-4.534 4.827-6.613 1.522-2.065 2.391-3.456 2.606-4.172a8.18 8.18 0 0 0-1.95-.407c-.57-.201-1.227-.263-1.971-.187z" fill="#EED2CA"/></svg>