<svg width="639" height="300" viewBox="0 0 639 300" fill="none" xmlns="http://www.w3.org/2000/svg">
<path d="M20.5614 88.7679C19.6641 87.3568 19.921 86.2025 21.3321 85.3052C22.7433 84.4079 23.8975 84.6648 24.7948 86.076C28.1197 91.4008 31.3536 94.5807 34.4965 95.6157C37.6533 96.5047 40.7228 95.9858 43.7049 94.0591C46.687 92.1323 49.6063 89.3156 52.4628 85.609C55.4791 81.7703 58.2312 77.6118 60.7189 73.1336C63.3666 68.5232 65.7222 63.885 67.7857 59.2192C69.9953 54.5672 71.8644 50.3986 73.3929 46.7132C74.9076 43.1739 76.2799 40.3576 77.5099 38.2645C78.7538 36.0254 79.9667 34.8883 81.1486 34.8532C82.9285 34.7275 83.8535 35.8466 83.9237 38.2105C84.4458 40.47 84.0055 44.3323 82.6026 49.7975C81.3458 55.2766 79.4809 61.7292 77.0079 69.1554C74.5349 76.5815 71.6276 84.7031 68.2859 93.52C65.0902 102.351 61.7416 111.241 58.2401 120.19C55.5028 127.296 52.8524 134.264 50.2889 141.092C47.7253 147.92 45.3494 154.324 43.161 160.304C41.1187 166.298 39.2778 171.722 37.6384 176.575C36.1311 181.588 35.079 185.687 34.482 188.872C36.4485 185.228 38.7866 179.999 41.4961 173.185C44.1918 166.516 47.1167 158.986 50.2708 150.593C52.8205 143.911 55.4639 137.016 58.2012 129.91C61.0984 122.671 63.9747 115.652 66.8303 108.851C69.8457 101.918 72.8926 95.4307 75.9709 89.3879C79.063 83.1991 82.1519 77.8204 85.2375 73.2516C88.4831 68.5506 91.6316 64.8717 94.683 62.2149C97.8805 59.572 101.019 58.3231 104.099 58.4682L104.318 58.489C109.735 58.8559 114.407 60.8464 118.337 64.4607C121.564 67.7136 123.964 71.9193 125.536 77.0777C127.109 82.2361 127.949 88.1352 128.055 94.775C128.175 101.269 127.516 108.204 126.079 115.581C124.802 122.826 122.906 130.381 120.392 138.245C118.78 142.807 117.029 147.281 115.139 151.669C122.55 148.1 128.953 145.835 134.348 144.874C139.889 143.927 143.417 143.231 144.933 142.785C146.594 142.354 147.755 142.538 148.416 143.337C148.799 143.963 148.802 144.699 148.427 145.548C148.198 146.41 147.704 146.952 146.947 147.175C145.271 147.753 141.503 148.647 135.642 149.859C129.928 151.084 121.982 154.086 111.804 158.866C105.884 171.563 98.3407 183.517 89.1734 194.727C80.1382 206.098 69.7502 215.424 58.0093 222.707C52.0589 226.415 47.0293 228.957 42.9207 230.335C38.9581 231.727 35.7426 232.232 33.2743 231.85C29.9161 231.531 27.6317 229.988 26.4211 227.222C25.5931 225.08 25.5645 222.279 26.3352 218.816C27.4673 214.651 29.9167 209.801 33.6835 204.265C37.4502 198.73 42.1383 193.577 47.7477 188.805L47.9667 188.826C51.7759 185.947 56.1031 183.043 60.9483 180.114C65.7934 177.186 70.8576 174.278 76.1408 171.391C81.424 168.504 86.7732 165.697 92.1885 162.97C97.6039 160.243 102.859 157.648 107.955 155.186C109.428 152.084 110.755 148.969 111.936 145.84C113.263 142.725 114.437 139.669 115.458 136.672C117.945 129.1 119.813 121.837 121.063 114.884C122.472 107.799 123.103 101.155 122.955 94.9537C122.793 88.898 122.045 83.5968 120.708 79.0502C119.372 74.5035 117.362 70.8505 114.677 68.0911C111.701 65.3039 108.161 63.7892 104.059 63.5471L103.84 63.5263C100.162 63.4718 96.2138 66.2644 91.9951 71.9042C87.9364 77.4119 83.7252 84.5257 79.3614 93.2457C75.1437 101.979 70.9888 111.603 66.8967 122.117C62.8047 132.63 58.9002 142.72 55.1834 152.385C51.265 162.621 47.6836 171.636 44.4389 179.431C41.3403 187.239 38.6303 192.507 36.3089 195.233C33.9875 197.959 31.881 198.422 29.9894 196.622C29.5652 196.434 29.2418 195.962 29.0191 195.204C28.643 192.958 29.0625 189.315 30.2778 184.274C31.639 179.247 33.4554 173.305 35.7269 166.449C38.1583 159.461 40.8711 151.837 43.8653 143.576C47.0055 135.329 50.2326 126.943 53.5465 118.418C56.0962 111.736 58.566 105.12 60.9558 98.5698C63.4916 92.0336 65.7807 85.7685 67.823 79.7748C70.0114 73.7948 71.9322 68.3051 73.5855 63.3057C75.2526 58.1602 76.5584 53.7171 77.5029 49.9763C75.8145 53.7938 73.8586 58.1015 71.6351 62.8995C69.4255 67.5515 66.9969 72.1827 64.3493 76.7931C61.7017 81.4035 58.8628 85.701 55.8326 89.6858C52.8162 93.5246 49.664 96.4664 46.376 98.5115C42.1565 101.057 37.8113 101.823 33.3404 100.81C29.0295 99.6637 24.7698 95.6498 20.5614 88.7679ZM55.3173 218.474C65.807 211.956 75.1282 203.78 83.2808 193.947C91.5655 184.273 98.5986 173.818 104.38 162.581C94.9465 167.284 85.4193 172.198 75.7983 177.325C66.1635 182.598 57.8635 187.777 50.8984 192.861C45.6087 197.368 41.2543 202.111 37.835 207.09C34.4158 212.069 32.2339 216.429 31.2894 220.17C30.6434 222.319 30.63 224.012 31.2492 225.249C31.604 226.167 32.4385 226.688 33.7526 226.813C35.7829 227.153 38.5534 226.679 42.0641 225.392C45.5748 224.105 49.9926 221.799 55.3173 218.474ZM177.038 134.563C178.68 135.897 179.789 137.402 180.367 139.078C181.381 137.701 182.316 136.39 183.171 135.145C184.026 133.9 184.728 132.715 185.276 131.588C186.145 130.198 187.282 129.863 188.686 130.586C190.209 131.615 190.537 132.824 189.668 134.215C189.654 134.361 189.574 134.427 189.428 134.413C189.428 134.413 189.421 134.486 189.407 134.632L189.345 135.289L186.416 140.536C184.491 143.742 182.371 147.445 180.057 151.645C177.743 155.845 175.482 160.271 173.272 164.923C171.222 169.443 169.392 173.983 167.78 178.545C166.328 182.974 165.502 187.021 165.301 190.685C165.427 192.465 166.241 193.205 167.742 192.906C169.258 192.46 171.455 191.048 174.332 188.669C176.73 186.687 179.323 184.208 182.11 181.231C185.057 178.123 188.098 174.802 191.233 171.269C194.381 167.59 197.603 163.918 200.897 160.253C204.351 156.456 207.938 152.819 211.657 149.341C212.803 148.124 214.072 147.95 215.463 148.819C216.019 149.166 216.336 149.712 216.413 150.456C216.489 151.2 216.288 151.77 215.808 152.166C212.263 155.366 208.757 158.937 205.288 162.88C201.834 166.677 198.453 170.481 195.144 174.292C191.996 177.971 188.941 181.438 185.98 184.693C183.019 187.947 180.26 190.632 177.702 192.746C176.117 193.922 174.619 194.958 173.208 195.855C171.943 196.766 170.705 197.386 169.496 197.713L169.256 197.911C165.919 198.92 163.398 198.312 161.694 196.088C160.651 194.663 160.153 192.922 160.202 190.864L160.222 190.645C160.326 188.003 160.735 185.242 161.451 182.364C162.152 179.631 163.013 176.766 164.034 173.769C165.202 170.786 166.442 167.81 167.755 164.841C169.082 161.726 170.468 158.764 171.914 155.954L170.454 157.363C167.215 160.444 163.844 163.365 160.34 166.126C156.851 168.741 153.542 171.005 150.414 172.918C146.848 174.789 143.556 176.098 140.539 176.842C137.535 177.441 134.98 177.199 132.873 176.115L131.027 174.613C129.838 173.174 129.1 171.631 128.815 169.983C128.111 166.528 129.243 162.363 132.211 157.489C134.699 153.01 138.188 148.848 142.678 145.002C146.251 141.511 150.067 138.558 154.126 136.144C158.2 133.585 162.037 131.96 165.639 131.271L165.858 131.292L168.965 131.145C170.571 131.297 172.004 131.728 173.263 132.437C174.681 133.013 175.94 133.722 177.038 134.563ZM176.144 143.981L176.269 142.667C175.956 141.311 175.131 139.907 173.796 138.454C172.155 137.12 170.378 136.435 168.466 136.401C167.59 136.318 166.999 136.335 166.693 136.454C163.544 137.039 160.092 138.479 156.339 140.774C152.745 142.938 149.328 145.56 146.089 148.641C144.143 150.519 142.343 152.41 140.689 154.316C139.035 156.221 137.672 158.154 136.602 160.115C134.316 164.023 133.368 167.027 133.758 169.127C133.876 169.433 134.053 169.892 134.29 170.503C134.54 170.969 134.871 171.369 135.281 171.702C136.54 172.411 138.306 172.432 140.579 171.763C142.706 171.081 145.167 169.989 147.962 168.487C151.076 166.72 154.225 164.588 157.409 162.091C160.606 159.448 163.817 156.659 167.043 153.724C168.815 152.124 170.442 150.511 171.922 148.883C173.402 147.256 174.81 145.622 176.144 143.981ZM229.42 161.414C228.141 162.471 226.893 162.427 225.676 161.28C224.765 160.015 224.883 158.774 226.03 157.557C228.762 155.164 230.59 152.98 231.514 151.006C232.452 148.885 232.778 147 232.492 145.353C232.207 143.705 231.369 142.447 229.978 141.578C228.719 140.869 227.12 140.644 225.18 140.902C223.519 141.333 221.948 142.363 220.467 143.99C218.987 145.617 217.795 148.082 216.892 151.385C215.989 154.688 216.189 158.022 217.49 161.386C218.951 164.619 220.366 167.553 221.737 170.187C221.973 170.799 222.217 171.338 222.467 171.804C222.864 172.283 223.187 172.756 223.438 173.222L223.417 173.441C231.807 167.313 240.013 162.346 248.035 158.541C252.199 156.579 256.11 154.961 259.767 153.688C260.524 153.465 261.181 153.528 261.738 153.875C262.308 154.077 262.704 154.556 262.927 155.314C263.045 155.62 262.99 156.204 262.761 157.066C262.691 157.796 262.278 158.273 261.52 158.495C258.009 159.783 254.252 161.341 250.248 163.171C246.23 165.146 242.111 167.407 237.891 169.953C233.672 172.499 229.584 175.205 225.629 178.071C228.482 185.266 229.384 192.055 228.336 198.438C227.288 204.82 225.301 210.23 222.376 214.667C220.172 217.699 217.879 220.133 215.495 221.969C212.658 223.91 209.832 224.967 207.017 225.142C204.493 225.344 202.184 224.831 200.091 223.601C197.984 222.517 196.193 220.431 194.719 217.345L194.186 215.968C192.558 211.394 193.328 206.384 196.497 200.939C199.506 195.627 203.843 190.293 209.508 184.937C210.974 183.456 212.507 182.055 214.106 180.733C215.864 179.28 217.616 177.899 219.361 176.591L218.787 175.653C218.537 175.187 218.286 174.721 218.036 174.256C217.785 173.79 217.542 173.251 217.305 172.639C215.67 169.685 214.077 166.293 212.526 162.462C211.134 158.499 211.011 154.363 212.157 150.052C213.303 145.741 214.936 142.507 217.056 140.351C219.19 138.049 221.539 136.578 224.105 135.938C227.268 135.207 230.094 135.696 232.584 137.406C235.393 138.851 237.083 141.222 237.654 144.517C238.163 146.922 237.76 149.61 236.447 152.579C235.294 155.416 232.952 158.361 229.42 161.414ZM218.224 211.842C220.642 208.094 222.327 203.539 223.278 198.178C224.215 192.964 223.567 187.377 221.333 181.419C219.895 182.609 218.456 183.798 217.017 184.987C215.578 186.177 214.212 187.373 212.919 188.576C207.908 193.257 204.012 197.822 201.232 202.273C198.439 206.869 197.692 210.85 198.994 214.215C198.966 214.507 199.084 214.813 199.348 215.132C201.074 218.685 203.49 220.387 206.598 220.24C208.684 219.997 210.599 219.221 212.344 217.913C214.408 216.341 216.368 214.317 218.224 211.842ZM259.733 153.464L262.182 148.614L263.787 145.672C267.908 137.96 272.095 130.329 276.348 122.777C280.746 115.239 285.024 108.205 289.179 101.675C293.349 94.9994 297.383 88.9738 301.282 83.5982C305.327 78.2365 309.063 73.8031 312.49 70.298L312.729 70.0998C317.143 65.5097 320.493 62.8076 322.781 61.9935C327.355 60.3652 328.948 62.2107 327.559 67.5299C326.871 70.1165 325.217 73.569 322.597 77.8873C320.137 82.0736 317.01 87.0804 313.216 92.9078C309.435 98.5893 305.102 104.66 300.216 111.121C295.33 117.581 289.979 124.292 284.161 131.253C278.49 138.228 272.62 144.964 266.553 151.459C262.446 159.025 258.558 166.612 254.889 174.219C251.234 181.68 247.826 188.87 244.665 195.789C241.357 202.694 238.463 209.123 235.983 215.075C233.503 221.027 231.536 226.218 230.085 230.647C231.474 228.422 233.045 225.845 234.796 222.918C236.547 219.99 238.459 216.93 240.53 213.739C243.858 208.162 247.434 202.313 251.256 196.194C255.064 190.22 258.758 184.678 262.337 179.567C266.076 174.323 269.506 170.008 272.627 166.621C275.907 163.102 278.743 161.162 281.135 160.8C284.882 160.124 287.055 161.288 287.654 164.291C288.267 167.149 288.073 170.74 287.073 175.065C286.219 179.403 284.987 183.853 283.375 188.415C281.909 192.99 280.833 196.571 280.145 199.158C283.301 196.953 286.22 194.136 288.903 190.708C291.732 187.293 294.501 183.726 297.212 180.005C299.922 176.285 302.633 172.564 305.343 168.844C308.2 165.137 311.306 161.896 314.664 159.121C315.143 158.725 315.755 158.488 316.499 158.411C317.403 158.203 318.206 158.279 318.908 158.64C319.611 159.002 319.927 159.547 319.858 160.277C319.802 160.861 319.455 161.418 318.815 161.946C316.779 163.226 314.172 165.851 310.996 169.822C307.834 173.647 304.491 177.823 300.967 182.351C297.589 186.892 294.239 191.141 290.917 195.098C287.727 199.215 284.954 202.045 282.597 203.589C280.866 204.751 279.212 205.109 277.633 204.665C276.055 204.22 275.255 203.334 275.234 202.006C274.997 201.394 275.129 200.007 275.629 197.845C276.129 195.683 276.73 193.235 277.431 190.502C278.292 187.638 279.161 184.7 280.036 181.689C280.911 178.678 281.612 175.946 282.14 173.491C282.828 170.905 283.161 168.947 283.139 167.62C283.132 166.146 282.67 165.586 281.752 165.941C280.09 166.372 277.852 168.222 275.037 171.491C272.222 174.76 269.112 178.81 265.707 183.644C262.301 188.477 258.854 193.748 255.366 199.457C251.717 205.298 248.236 210.934 244.921 216.365C242.662 219.981 240.571 223.392 238.646 226.598C236.721 229.804 234.91 232.578 233.215 234.922C231.519 237.266 230.091 239.119 228.93 240.482C227.609 241.977 226.504 242.756 225.614 242.819C223.674 243.077 222.516 242.083 222.14 239.837L222.203 239.18C222.974 235.718 224.533 230.93 226.881 224.818C229.07 218.838 231.852 212.031 235.229 204.396C238.446 196.893 242.163 188.775 246.381 180.041C250.599 171.307 255.049 162.448 259.733 153.464ZM277.289 131.485C281.772 126.165 286.102 120.904 290.279 115.702C294.469 110.354 298.268 105.264 301.673 100.431C305.238 95.4653 308.397 90.9034 311.149 86.7449C313.915 82.4404 316.267 78.6123 318.206 75.2605C319.061 74.0157 319.763 72.8301 320.312 71.7036C320.861 70.5771 321.323 69.5897 321.698 68.7414C320.899 69.4021 320.019 70.1289 319.06 70.9218C318.247 71.7286 317.274 72.6674 316.141 73.7385C310.74 79.4134 304.607 87.376 297.74 97.6263C291.02 107.89 284.203 119.177 277.289 131.485ZM346.861 150.687C348.502 152.021 349.611 153.526 350.189 155.201C351.204 153.824 352.138 152.514 352.993 151.269C353.848 150.024 354.55 148.838 355.099 147.712C355.967 146.321 357.104 145.987 358.509 146.71C360.032 147.738 360.359 148.948 359.49 150.339C359.476 150.485 359.396 150.551 359.25 150.537C359.25 150.537 359.243 150.61 359.229 150.756L359.167 151.413L356.238 156.66C354.313 159.865 352.194 163.568 349.88 167.768C347.566 171.969 345.304 176.395 343.094 181.047C341.044 185.566 339.214 190.107 337.602 194.668C336.15 199.098 335.324 203.144 335.124 206.808C335.249 208.588 336.063 209.329 337.565 209.029C339.08 208.584 341.277 207.172 344.154 204.793C346.553 202.811 349.145 200.331 351.932 197.355C354.879 194.246 357.92 190.925 361.055 187.393C364.203 183.714 367.425 180.042 370.719 176.377C374.174 172.58 377.76 168.942 381.479 165.465C382.626 164.248 383.894 164.074 385.285 164.942C385.842 165.29 386.158 165.835 386.235 166.579C386.311 167.323 386.11 167.893 385.63 168.29C382.085 171.489 378.579 175.06 375.111 179.004C371.656 182.801 368.275 186.605 364.967 190.416C361.818 194.095 358.763 197.561 355.802 200.816C352.842 204.071 350.082 206.755 347.524 208.87C345.939 210.045 344.441 211.082 343.03 211.979C341.765 212.89 340.528 213.509 339.318 213.836L339.078 214.035C335.741 215.044 333.221 214.436 331.517 212.212C330.473 210.787 329.976 209.045 330.024 206.987L330.045 206.768C330.148 204.126 330.558 201.366 331.273 198.487C331.974 195.755 332.836 192.89 333.857 189.893C335.024 186.91 336.264 183.934 337.577 180.965C338.904 177.85 340.29 174.887 341.736 172.078L340.276 173.486C337.037 176.567 333.666 179.488 330.163 182.25C326.673 184.865 323.364 187.129 320.236 189.042C316.67 190.913 313.378 192.221 310.361 192.966C307.358 193.565 304.802 193.322 302.696 192.238L300.849 190.737C299.66 189.298 298.922 187.755 298.637 186.107C297.934 182.652 299.066 178.487 302.033 173.612C304.521 169.134 308.01 164.972 312.5 161.126C316.073 157.634 319.889 154.682 323.949 152.268C328.022 149.708 331.86 148.084 335.461 147.394L335.68 147.415L338.788 147.268C340.394 147.421 341.826 147.851 343.085 148.56C344.503 149.137 345.762 149.846 346.861 150.687ZM345.966 160.104L346.091 158.79C345.778 157.434 344.954 156.03 343.618 154.578C341.977 153.243 340.201 152.559 338.289 152.525C337.412 152.441 336.822 152.459 336.516 152.577C333.366 153.162 329.915 154.602 326.161 156.898C322.567 159.061 319.151 161.683 315.911 164.764C313.965 166.642 312.165 168.534 310.511 170.439C308.857 172.345 307.495 174.278 306.424 176.239C304.138 180.147 303.19 183.151 303.58 185.25C303.698 185.556 303.876 186.015 304.112 186.627C304.363 187.093 304.693 187.492 305.103 187.826C306.362 188.535 308.128 188.555 310.401 187.887C312.529 187.205 314.99 186.113 317.784 184.61C320.898 182.843 324.047 180.711 327.231 178.214C330.428 175.572 333.64 172.783 336.865 169.848C338.637 168.248 340.264 166.634 341.744 165.007C343.225 163.38 344.632 161.745 345.966 160.104ZM460.213 63.1085C460.949 61.5578 462.093 61.1507 463.644 61.8873C465.035 62.756 465.442 63.8996 464.865 65.3181L458.1 78.3771C467.035 78.9307 476.07 79.1993 485.206 79.1827C494.487 79.18 503.585 78.7915 512.498 78.0171C521.411 77.2428 529.862 75.9089 537.85 74.0154C545.984 72.1359 553.37 69.596 560.009 66.3958C561.392 65.7905 562.533 66.1935 563.43 67.6046C563.667 68.2163 563.677 68.8803 563.462 69.5965C563.247 70.3127 562.833 70.7891 562.221 71.0256C555.263 74.4901 547.49 77.2143 538.904 79.1983C530.478 81.0502 521.583 82.4155 512.218 83.2943C503.013 84.0409 493.55 84.3948 483.83 84.3559C474.257 84.3309 464.856 84.0277 455.63 83.4463L388.537 215.195C388.377 215.327 388.297 215.393 388.297 215.393C388.283 215.539 388.196 215.678 388.037 215.81C385.09 218.919 382.935 219.893 381.571 218.732C380.473 217.891 380.5 216.052 381.653 213.215C382.939 210.538 384.818 207.033 387.292 202.701C390.357 196.804 394.064 189.569 398.414 180.995C402.91 172.435 407.075 163.475 410.91 154.116C414.759 144.61 417.857 135.255 420.205 126.049C422.712 116.711 423.495 108.461 422.555 101.3C421.628 93.993 418.251 88.4423 412.423 84.6479C406.756 80.7212 397.585 79.5559 384.91 81.1517C384.18 81.0824 383.603 80.9539 383.179 80.7663C378.861 78.1464 377.31 75.863 378.526 73.9158C379.408 72.3791 382.558 71.7941 387.974 72.161C393.404 72.3819 400.492 72.9813 409.239 73.959C415.358 74.6873 422.06 75.471 429.347 76.3101C436.647 77.0033 444.4 77.592 452.604 78.0763L460.213 63.1085ZM422.471 137.092L450.155 82.9265C443.703 82.6086 437.483 82.1654 431.497 81.597C425.67 80.8965 420.202 80.3036 415.092 79.8184C418.867 81.9449 421.691 84.7911 423.562 88.3573C425.58 91.9374 426.958 96.046 427.696 100.683C428.379 105.904 428.203 111.634 427.169 117.87C426.149 123.961 424.583 130.369 422.471 137.092ZM471.554 162.525C473.195 163.86 474.304 165.365 474.882 167.04C475.897 165.663 476.831 164.352 477.686 163.108C478.541 161.863 479.243 160.677 479.792 159.551C480.661 158.16 481.797 157.826 483.202 158.549C484.725 159.577 485.052 160.787 484.183 162.178C484.169 162.324 484.089 162.39 483.943 162.376C483.943 162.376 483.936 162.449 483.923 162.595L483.86 163.252L480.931 168.499C479.006 171.704 476.887 175.407 474.573 179.607C472.259 183.807 469.997 188.233 467.787 192.885C465.738 197.405 463.907 201.946 462.295 206.507C460.843 210.937 460.017 214.983 459.817 218.647C459.942 220.427 460.756 221.167 462.258 220.868C463.773 220.423 465.97 219.011 468.848 216.632C471.246 214.65 473.838 212.17 476.625 209.194C479.572 206.085 482.613 202.764 485.748 199.231C488.896 195.553 492.118 191.881 495.412 188.216C498.867 184.418 502.453 180.781 506.172 177.304C507.319 176.087 508.588 175.912 509.978 176.781C510.535 177.129 510.851 177.674 510.928 178.418C511.005 179.162 510.803 179.732 510.324 180.129C506.779 183.328 503.272 186.899 499.804 190.842C496.349 194.64 492.968 198.444 489.66 202.255C486.511 205.934 483.457 209.4 480.496 212.655C477.535 215.91 474.775 218.594 472.217 220.709C470.632 221.884 469.134 222.921 467.723 223.818C466.458 224.729 465.221 225.348 464.011 225.675L463.771 225.873C460.434 226.883 457.914 226.275 456.21 224.051C455.166 222.626 454.669 220.884 454.717 218.826L454.738 218.607C454.841 215.965 455.251 213.205 455.966 210.326C456.667 207.594 457.529 204.729 458.55 201.732C459.717 198.749 460.957 195.773 462.27 192.804C463.597 189.688 464.984 186.726 466.429 183.917L464.969 185.325C461.73 188.406 458.359 191.327 454.856 194.088C451.366 196.704 448.057 198.968 444.929 200.881C441.363 202.752 438.071 204.06 435.054 204.805C432.051 205.404 429.496 205.161 427.389 204.077L425.542 202.576C424.353 201.137 423.616 199.594 423.33 197.946C422.627 194.491 423.759 190.326 426.726 185.451C429.214 180.973 432.703 176.811 437.193 172.964C440.766 169.473 444.582 166.521 448.642 164.107C452.715 161.547 456.553 159.923 460.154 159.233L460.373 159.254L463.481 159.107C465.087 159.26 466.519 159.69 467.778 160.399C469.196 160.976 470.455 161.685 471.554 162.525ZM470.66 171.943L470.784 170.629C470.471 169.273 469.647 167.869 468.312 166.416C466.67 165.082 464.894 164.398 462.982 164.363C462.106 164.28 461.515 164.298 461.209 164.416C458.059 165.001 454.608 166.441 450.854 168.737C447.26 170.9 443.844 173.522 440.605 176.603C438.658 178.481 436.858 180.373 435.204 182.278C433.55 184.184 432.188 186.117 431.118 188.078C428.831 191.986 427.883 194.99 428.273 197.089C428.391 197.395 428.569 197.854 428.805 198.466C429.056 198.932 429.386 199.331 429.796 199.665C431.055 200.374 432.821 200.394 435.094 199.726C437.222 199.044 439.683 197.952 442.477 196.449C445.591 194.682 448.74 192.55 451.924 190.053C455.121 187.41 458.333 184.621 461.558 181.686C463.33 180.087 464.957 178.473 466.437 176.846C467.918 175.219 469.325 173.584 470.66 171.943ZM507.742 180.989C507.596 180.975 507.45 180.961 507.304 180.947C507.172 180.787 507.033 180.7 506.887 180.686C505.642 179.832 505.381 178.702 506.104 177.297C505.24 173.974 504.961 170.706 505.266 167.494C505.571 164.282 506.047 161.602 506.693 159.453C507.929 155.74 509.541 152.725 511.529 150.41C513.517 148.094 515.203 146.633 516.586 146.028C518.275 145.304 519.749 145.297 521.008 146.006C522.413 146.729 523.477 147.935 524.2 149.624C524.938 151.167 525.268 153.114 525.193 155.464C525.131 157.668 524.544 159.969 523.432 162.368C521.973 165.324 520.069 168.31 517.72 171.328C515.384 174.201 513.41 176.37 511.798 177.838C512.8 179.701 514.027 181.512 515.481 183.27C516.935 185.029 518.169 186.767 519.185 188.484C520.701 191.132 521.814 193.374 522.524 195.209C523.248 196.899 523.439 198.759 523.099 200.789C522.905 202.833 522.238 205.201 521.099 207.892C519.959 210.583 518.372 214.115 516.336 218.489C514.3 222.863 511.795 228.297 508.821 234.791C505.98 241.446 502.693 249.679 498.963 259.49C497.955 262.341 497.209 264.775 496.723 266.791C496.223 268.954 495.837 270.685 495.567 271.985C495.442 273.299 495.783 274.363 496.589 275.176C497.236 276.122 498.224 276.584 499.552 276.562C500.88 276.541 502.336 275.943 503.921 274.767C505.506 273.592 507.021 271.599 508.466 268.79C510.954 264.312 514.185 258.21 518.16 250.484C522.267 242.919 526.78 234.95 531.7 226.577C536.62 218.205 541.885 210.086 547.493 202.221C553.261 194.224 559.03 187.773 564.8 182.87C565.439 182.341 565.992 181.952 566.457 181.702C566.923 181.451 567.507 181.507 568.21 181.868C568.912 182.229 569.374 182.789 569.597 183.547C569.98 184.172 569.924 184.756 569.431 185.299C563.502 190.334 557.833 196.499 552.426 203.794C547.033 210.943 541.977 218.419 537.259 226.221C532.686 234.037 528.499 241.669 524.698 249.116C520.898 256.564 517.639 262.958 514.922 268.298C512.886 272.672 510.516 275.909 507.812 278.01C505.24 280.27 502.685 281.574 500.148 281.923C497.756 282.285 495.667 281.792 493.879 280.444C491.946 279.081 490.812 277.059 490.478 274.375C490.192 272.727 490.393 270.61 491.081 268.023C491.609 265.569 492.591 262.2 494.029 257.917C497.572 248.53 500.751 240.655 503.565 234.292C506.379 227.93 508.797 222.635 510.819 218.407C512.841 214.179 514.408 210.866 515.52 208.467C516.791 205.936 517.583 203.801 517.895 202.063C518.222 200.178 518.089 198.472 517.498 196.942C517.066 195.281 516.144 193.351 514.732 191.155C513.703 189.584 512.468 187.846 511.029 185.941C509.735 184.051 508.639 182.4 507.742 180.989ZM510.492 170.642C511.931 169.453 513.425 167.68 514.975 165.322C516.671 162.979 517.981 160.819 518.905 158.845C519.815 157.016 520.208 155.211 520.082 153.432C520.116 151.52 519.601 150.734 518.538 151.075C517.474 151.416 516.355 152.341 515.18 153.85C514.152 155.373 513.175 157.122 512.251 159.097C511.487 160.939 510.928 162.949 510.574 165.125C510.22 167.302 510.193 169.141 510.492 170.642ZM569.234 184.175C565.273 191.755 561.625 199.143 558.29 206.34C554.822 213.377 551.841 219.945 549.347 226.043C546.707 232.127 544.647 237.53 543.168 242.251C541.528 247.105 540.657 250.852 540.553 253.494C540.533 255.26 540.881 256.251 541.597 256.466C542.167 256.668 542.932 256.372 543.891 255.579C544.69 254.919 545.67 253.907 546.831 252.544C547.832 251.313 548.753 250.148 549.594 249.049C551.838 245.579 554.618 241.129 557.933 235.698C561.234 230.413 564.862 224.79 568.816 218.831C572.903 213.031 577.208 207.252 581.733 201.494C586.417 195.604 591.258 190.391 596.256 185.857C596.735 185.46 597.281 185.144 597.893 184.907C598.504 184.671 599.161 184.733 599.864 185.094C600.42 185.442 600.737 185.987 600.813 186.731C601.036 187.489 600.901 188.139 600.407 188.682C593.185 194.92 586.777 201.899 581.182 209.618C575.734 217.351 570.838 224.695 566.494 231.649C562.137 238.749 558.308 244.941 555.007 250.226C551.546 255.643 548.418 259.103 545.624 260.606C542.363 262.359 539.854 262.415 538.094 260.775C536.188 259.12 535.249 256.6 535.276 253.214C535.421 250.134 536.414 245.883 538.255 240.459C539.936 235.167 542.284 229.055 545.3 222.123C548.155 215.322 551.577 207.986 555.566 200.114C559.422 192.083 563.584 183.933 568.053 175.665C570.207 171.597 572.361 167.529 574.515 163.461C576.815 159.407 579.188 155.36 581.634 151.32C578.541 151.321 575.485 151.694 572.468 152.439C569.61 153.051 566.983 154.349 564.585 156.331C564.383 156.901 564.262 157.405 564.22 157.843C564.192 158.135 564.018 158.413 563.699 158.678C562.844 159.922 561.839 160.416 560.685 160.159C559.399 159.743 558.978 158.745 559.422 157.167C562.362 152.584 565.952 149.684 570.193 148.466C574.594 147.116 579.283 146.603 584.261 146.929C590.196 137.179 596.055 128.233 601.837 120.09C607.633 111.8 612.984 105.09 617.892 99.9571L618.131 99.7588C622.851 95.0505 626.274 92.3554 628.402 91.6734C632.976 90.0451 634.569 91.8906 633.18 97.2098C632.492 99.7964 630.838 103.249 628.219 107.567C625.237 112.588 621.189 118.76 616.074 126.082C611.105 133.419 605.431 141.204 599.05 149.438C601.213 149.938 603.302 150.431 605.319 150.917C607.349 151.257 609.306 151.59 611.19 151.916C612.637 152.201 614.441 152.593 616.603 153.093C618.926 153.461 621.255 153.756 623.591 153.978C625.927 154.199 628.065 154.181 630.005 153.924C632.091 153.68 633.707 152.949 634.854 151.732C635.959 150.953 636.988 150.977 637.941 151.804C638.907 152.485 638.97 153.375 638.129 154.474C636.503 156.087 634.553 157.228 632.28 157.896C630.02 158.419 627.569 158.628 624.927 158.524C622.445 158.289 619.97 157.98 617.502 157.598C615.047 157.071 612.805 156.637 610.775 156.297C608.452 155.929 606.064 155.481 603.609 154.953C601.169 154.28 598.648 153.672 596.048 153.13C591.871 158.332 587.541 163.593 583.058 168.913C578.735 174.101 574.207 179.122 569.473 183.977L569.234 184.175ZM621.762 103.418C617.028 108.273 611.864 114.559 606.27 122.279C600.821 130.011 595.303 138.474 589.716 147.668C590.446 147.737 591.096 147.872 591.666 148.074C592.25 148.129 592.834 148.185 593.418 148.24C600.264 139.756 606.252 131.779 611.381 124.311C616.669 116.71 620.818 110.253 623.827 104.94C624.682 103.696 625.384 102.51 625.933 101.383C626.482 100.257 626.944 99.2696 627.319 98.4213C626.52 99.082 625.64 99.8088 624.681 100.602C623.868 101.408 622.895 102.347 621.762 103.418ZM586.693 151.579C586.491 152.149 585.862 153.342 584.806 155.157C583.896 156.986 582.819 159.02 581.575 161.259C580.345 163.352 579.035 165.511 577.645 167.736C576.415 169.83 575.446 171.505 574.737 172.764C575.376 172.235 576.523 171.018 578.177 169.113C579.831 167.207 581.499 165.156 583.181 162.958C585.023 160.629 586.632 158.424 588.008 156.345C589.53 154.28 590.399 152.889 590.614 152.173C590.044 151.971 589.394 151.836 588.664 151.766C588.094 151.565 587.437 151.503 586.693 151.579Z" fill="#EED2CA"/>
</svg>
